<svg width="20" height="20" viewBox="0 0 20 20" fill="none" xmlns="http://www.w3.org/2000/svg">
<g id="Group">
<path id="Vector" d="M12.5832 1.08785C12.2467 0.743509 11.8448 0.469899 11.4011 0.283095C10.9574 0.0962905 10.4808 6.10352e-05 9.99937 6.10352e-05C9.51793 6.10352e-05 9.04135 0.0962905 8.59763 0.283095C8.15391 0.469899 7.752 0.743509 7.41553 1.08785L6.638 1.88538L5.52545 1.87163C5.04387 1.86593 4.56601 1.95658 4.11998 2.13825C3.67394 2.31992 3.26873 2.58894 2.92818 2.92949C2.58763 3.27004 2.31861 3.67525 2.13694 4.12129C1.95527 4.56733 1.86462 5.04519 1.87032 5.52677L1.88282 6.63931L1.08779 7.41684C0.743448 7.75331 0.469838 8.15522 0.283034 8.59894C0.0962295 9.04266 0 9.51925 0 10.0007C0 10.4821 0.0962295 10.9587 0.283034 11.4024C0.469838 11.8462 0.743448 12.2481 1.08779 12.5845L1.88407 13.3621L1.87032 14.4746C1.86462 14.9562 1.95527 15.434 2.13694 15.8801C2.31861 16.3261 2.58763 16.7313 2.92818 17.0719C3.26873 17.4124 3.67394 17.6815 4.11998 17.8631C4.56601 18.0448 5.04387 18.1354 5.52545 18.1297L6.638 18.1172L7.41553 18.9123C7.752 19.2566 8.15391 19.5302 8.59763 19.717C9.04135 19.9038 9.51793 20.0001 9.99937 20.0001C10.4808 20.0001 10.9574 19.9038 11.4011 19.717C11.8448 19.5302 12.2467 19.2566 12.5832 18.9123L13.3608 18.116L14.4733 18.1297C14.9549 18.1354 15.4327 18.0448 15.8788 17.8631C16.3248 17.6815 16.73 17.4124 17.0706 17.0719C17.4111 16.7313 17.6801 16.3261 17.8618 15.8801C18.0435 15.434 18.1341 14.9562 18.1284 14.4746L18.1159 13.3621L18.911 12.5845C19.2553 12.2481 19.5289 11.8462 19.7157 11.4024C19.9025 10.9587 19.9987 10.4821 19.9987 10.0007C19.9987 9.51925 19.9025 9.04266 19.7157 8.59894C19.5289 8.15522 19.2553 7.75331 18.911 7.41684L18.1147 6.63931L18.1284 5.52677C18.1341 5.04519 18.0435 4.56733 17.8618 4.12129C17.6801 3.67525 17.4111 3.27004 17.0706 2.92949C16.73 2.58894 16.3248 2.31992 15.8788 2.13825C15.4327 1.95658 14.9549 1.86593 14.4733 1.87163L13.3608 1.88413L12.5832 1.0891V1.08785ZM12.942 8.56813L9.19184 12.3183C9.13378 12.3765 9.06481 12.4227 8.98888 12.4542C8.91294 12.4857 8.83154 12.5019 8.74933 12.5019C8.66711 12.5019 8.58571 12.4857 8.50978 12.4542C8.43384 12.4227 8.36487 12.3765 8.30681 12.3183L6.43174 10.4432C6.37363 10.3851 6.32753 10.3161 6.29608 10.2402C6.26463 10.1642 6.24844 10.0829 6.24844 10.0007C6.24844 9.9185 6.26463 9.83712 6.29608 9.7612C6.32753 9.68527 6.37363 9.61628 6.43174 9.55817C6.48985 9.50006 6.55884 9.45396 6.63477 9.42251C6.71069 9.39106 6.79207 9.37487 6.87426 9.37487C6.95644 9.37487 7.03782 9.39106 7.11374 9.42251C7.18967 9.45396 7.25866 9.50006 7.31677 9.55817L8.74933 10.992L12.057 7.6831C12.1743 7.56573 12.3335 7.4998 12.4995 7.4998C12.6654 7.4998 12.8246 7.56573 12.942 7.6831C13.0593 7.80046 13.1253 7.95964 13.1253 8.12561C13.1253 8.29159 13.0593 8.45077 12.942 8.56813Z" fill="#6022EA"/>
</g>
</svg>
