<svg width="40" height="41" viewBox="0 0 40 41" fill="none" xmlns="http://www.w3.org/2000/svg">
<g opacity="0.7">
<circle cx="20" cy="20.9219" r="20" fill="white"/>
<g clip-path="url(#clip0_753_23)">
<path d="M16.4223 29.003C16.4223 29.899 16.4323 30.756 16.4383 31.288C16.4395 31.4166 16.4807 31.5417 16.5564 31.6457C16.6321 31.7496 16.7383 31.8274 16.8603 31.868C18.9383 32.554 21.1773 32.586 23.2743 31.959L23.5663 31.872C23.7038 31.8309 23.8245 31.7467 23.9105 31.6319C23.9966 31.517 24.0435 31.3776 24.0443 31.234C24.0493 30.501 24.0613 29.217 24.0613 27.704C24.0613 26.332 23.5843 25.454 23.0303 24.997C26.4293 24.631 30.0003 23.387 30.0003 17.77C30.0003 16.16 29.4083 14.86 28.4343 13.836C28.5873 13.47 29.1223 11.97 28.2813 9.95804C28.2813 9.95804 27.0013 9.55504 24.0803 11.458C22.834 11.1272 21.5498 10.9611 20.2603 10.964C18.9623 10.964 17.6633 11.129 16.4413 11.458C13.5203 9.57204 12.2403 9.95804 12.2403 9.95804C11.4003 11.97 11.9343 13.47 12.0873 13.836C11.0674 14.8898 10.5046 16.3036 10.5213 17.77C10.5213 23.368 14.0733 24.63 17.4723 24.997C17.0333 25.363 16.6323 26.003 16.4993 26.954C15.6203 27.338 13.4243 27.96 12.0493 25.747C11.7633 25.307 10.9033 24.228 9.70033 24.247C8.42033 24.265 9.18433 24.942 9.72033 25.217C10.3683 25.564 11.1133 26.863 11.2853 27.284C11.5913 28.107 12.5843 29.68 16.4223 29.004V29.003Z" fill="black"/>
</g>
</g>
<defs>
<clipPath id="clip0_753_23">
<rect width="24" height="24" fill="white" transform="translate(8 8.92188)"/>
</clipPath>
</defs>
</svg>
