<svg width="40" height="41" viewBox="0 0 40 41" fill="none" xmlns="http://www.w3.org/2000/svg">
<g opacity="0.7">
<circle cx="20" cy="20.9219" r="20" fill="white"/>
<path d="M20.0001 17.7977C18.2798 17.7977 16.8759 19.2016 16.8759 20.9219C16.8759 22.6422 18.2798 24.0461 20.0001 24.0461C21.7204 24.0461 23.1243 22.6422 23.1243 20.9219C23.1243 19.2016 21.7204 17.7977 20.0001 17.7977ZM29.3704 20.9219C29.3704 19.6281 29.3821 18.3461 29.3095 17.0547C29.2368 15.5547 28.8946 14.2235 27.7978 13.1266C26.6985 12.0274 25.3696 11.6875 23.8696 11.6149C22.5759 11.5422 21.2939 11.5539 20.0025 11.5539C18.7087 11.5539 17.4267 11.5422 16.1353 11.6149C14.6353 11.6875 13.304 12.0297 12.2071 13.1266C11.1079 14.2258 10.7681 15.5547 10.6954 17.0547C10.6228 18.3485 10.6345 19.6305 10.6345 20.9219C10.6345 22.2133 10.6228 23.4977 10.6954 24.7891C10.7681 26.2891 11.1103 27.6203 12.2071 28.7172C13.3064 29.8164 14.6353 30.1563 16.1353 30.2289C17.429 30.3016 18.711 30.2899 20.0025 30.2899C21.2962 30.2899 22.5782 30.3016 23.8696 30.2289C25.3696 30.1563 26.7009 29.8141 27.7978 28.7172C28.897 27.618 29.2368 26.2891 29.3095 24.7891C29.3845 23.4977 29.3704 22.2156 29.3704 20.9219ZM20.0001 25.7289C17.34 25.7289 15.1931 23.582 15.1931 20.9219C15.1931 18.2617 17.34 16.1149 20.0001 16.1149C22.6603 16.1149 24.8071 18.2617 24.8071 20.9219C24.8071 23.582 22.6603 25.7289 20.0001 25.7289ZM25.004 17.0406C24.3829 17.0406 23.8814 16.5391 23.8814 15.918C23.8814 15.2969 24.3829 14.7953 25.004 14.7953C25.6251 14.7953 26.1267 15.2969 26.1267 15.918C26.1269 16.0655 26.0979 16.2115 26.0416 16.3478C25.9852 16.4841 25.9026 16.6079 25.7983 16.7122C25.694 16.8165 25.5701 16.8992 25.4339 16.9556C25.2976 17.0119 25.1515 17.0408 25.004 17.0406Z" fill="black"/>
</g>
</svg>
