<svg width="40" height="41" viewBox="0 0 40 41" fill="none" xmlns="http://www.w3.org/2000/svg">
<g opacity="0.7">
<circle cx="20" cy="20.9219" r="20" fill="white"/>
<path d="M12.5 14.9219C13.6046 14.9219 14.5 14.0264 14.5 12.9219C14.5 11.8173 13.6046 10.9219 12.5 10.9219C11.3954 10.9219 10.5 11.8173 10.5 12.9219C10.5 14.0264 11.3954 14.9219 12.5 14.9219Z" fill="black" stroke="black" stroke-width="0.0833333"/>
<path d="M10.5 17.9219H14.5V30.4219H10.5V17.9219ZM18.5 22.6719V30.4219H22V23.4219C22 22.1719 22.75 21.1719 24 21.1719C25.25 21.1719 26 22.4219 26 23.4219V30.4219H29.5V22.6719C29.5 21.1719 27.75 17.9219 24 17.9219C20.25 17.9219 18.5 21.1719 18.5 22.6719Z" fill="black" stroke="black" stroke-width="0.0833333" stroke-linejoin="round"/>
</g>
</svg>
