<svg width="71" height="70" viewBox="0 0 71 70" fill="none" xmlns="http://www.w3.org/2000/svg">
<g id="Frame">
<path id="Vector" d="M17.9581 8.75V17.5H9.18738V8.75H17.9581ZM4.80203 4.375V21.875H22.3434V4.375H4.80203Z" fill="#6022EA"/>
<path id="Vector_2" d="M39.8858 15.3125V24.0625H31.1151V15.3125H39.8858ZM26.7298 10.9375V28.4375H44.2711V10.9375H26.7298Z" fill="#6022EA"/>
<path id="Vector_3" d="M17.9581 35V43.75H9.18738V35H17.9581ZM4.80203 30.625V48.125H22.3434V30.625H4.80203Z" fill="#6022EA"/>
<path id="Vector_4" d="M48.6551 21.875V35H35.4991V48.125H22.343V65.625H66.1965V21.875H48.6551ZM39.8844 39.375H48.6551V48.125H39.8844V39.375ZM35.4991 61.25H26.7284V52.5H35.4991V61.25ZM48.6551 61.25H39.8844V52.5H48.6551V61.25ZM61.8111 61.25H53.0404V52.5H61.8111V61.25ZM61.8111 48.125H53.0404V39.375H61.8111V48.125ZM53.0404 35V26.25H61.8111V35H53.0404Z" fill="#6022EA"/>
</g>
</svg>
