<svg width="71" height="66" viewBox="0 0 71 66" fill="none" xmlns="http://www.w3.org/2000/svg">
<g id="Frame" clip-path="url(#clip0_1_178)">
<g id="Group">
<path id="Vector" fill-rule="evenodd" clip-rule="evenodd" d="M37.8989 49.4498C32.0029 49.4498 26.0128 45.9498 22.5169 41.3172C5.74468 41.3172 5.23767 65.2775 5.23767 65.2775H70.556C70.556 65.2775 71.8726 41.2109 53.011 41.2109C49.5192 45.9008 43.7949 49.4498 37.8989 49.4498Z" fill="#4F00FF"/>
<path id="Vector_2" fill-rule="evenodd" clip-rule="evenodd" d="M51.9479 20.7262C51.9479 27.6199 45.6552 40.8022 37.8865 40.8022C30.1301 40.8022 23.8334 27.6158 23.8334 20.7262C23.8334 13.8366 30.126 8.24316 37.8865 8.24316C45.6552 8.24725 51.9479 13.8407 51.9479 20.7262Z" fill="#4F00FF"/>
<path id="Vector_3" fill-rule="evenodd" clip-rule="evenodd" d="M58.2183 14.7768C58.2183 13.4847 56.4192 12.4421 54.1867 12.4339V9.77209C54.1867 9.37547 54.338 0.0898438 37.9338 0.0898438C21.5378 0.0898438 21.6891 9.37547 21.6891 9.77209V12.5279C21.6482 12.5279 21.6155 12.5157 21.5787 12.5157C19.3585 12.5157 17.5717 13.5419 17.5717 14.8136V26.0741C17.5717 27.3375 19.3625 28.3679 21.5787 28.3679C23.7948 28.3679 25.5938 27.3375 25.5938 26.0741V14.8136C25.5938 14.6377 25.4835 14.4783 25.418 14.3147V11.244C25.418 10.9619 24.2405 3.95375 37.9338 3.95375C51.6312 3.95375 50.2083 10.9619 50.2083 11.244V14.4783C50.1838 14.5805 50.1061 14.6705 50.1061 14.7768V26.2949C50.1061 27.591 51.9174 28.6418 54.1622 28.6418C54.2112 28.6418 54.248 28.6255 54.2971 28.6255V32.8328H50.2737V36.799H58.2591L58.2183 14.7768Z" fill="#4F00FF"/>
</g>
</g>
<defs>
<clipPath id="clip0_1_178">
<rect width="70" height="65.4206" fill="white" transform="translate(0.833374)"/>
</clipPath>
</defs>
</svg>
