<svg width="16" height="19" viewBox="0 0 16 19" fill="none" xmlns="http://www.w3.org/2000/svg">
<g clip-path="url(#clip0_1_135)">
<path d="M5.71505 16L8.00001 13.7143V14.8571C9.13095 14.8573 10.2365 14.5219 11.1767 13.8934C12.117 13.2649 12.8496 12.3716 13.2819 11.3265C13.7141 10.2814 13.8266 9.13161 13.6051 8.02258C13.3835 6.91355 12.8379 5.89517 12.0373 5.09638L13.648 3.4781C14.3949 4.22041 14.9874 5.10333 15.3912 6.07588C15.795 7.04843 16.0022 8.09133 16.0008 9.14438C16.0008 13.5619 12.4198 17.1429 8.00229 17.1429H8.00077V18.2857L5.71505 16ZM0.000767779 9.14286C0.00610111 4.72686 3.58477 1.14819 8.00001 1.14286H8.00077V0L10.2865 2.28571L8.00077 4.57143V3.42857H7.99925C6.86831 3.42864 5.76281 3.7642 4.82265 4.39279C3.88249 5.02138 3.14994 5.91474 2.7177 6.95982C2.28546 8.0049 2.17296 9.15471 2.39444 10.2638C2.61592 11.3728 3.16142 12.3912 3.96191 13.1901L2.35277 14.8084C1.60627 14.0705 1.01386 13.1916 0.609962 12.2228C0.206062 11.254 -0.00127238 10.2146 5.87461e-06 9.16495V9.1421V9.14362L0.000767779 9.14286Z" fill="white"/>
</g>
<defs>
<clipPath id="clip0_1_135">
<rect width="16" height="18.2857" fill="white"/>
</clipPath>
</defs>
</svg>
