<svg width="40" height="41" viewBox="0 0 40 41" fill="none" xmlns="http://www.w3.org/2000/svg">
<g opacity="0.7">
<circle cx="20" cy="20.9219" r="20" fill="white"/>
<path d="M31.6425 13.859C30.8075 14.229 29.9105 14.479 28.9675 14.592C29.9405 14.0097 30.6685 13.0934 31.0155 12.014C30.1014 12.5569 29.1009 12.9391 28.0575 13.144C27.3559 12.3948 26.4266 11.8983 25.4138 11.7314C24.4011 11.5646 23.3616 11.7367 22.4568 12.2212C21.5519 12.7057 20.8323 13.4753 20.4097 14.4107C19.9871 15.346 19.8851 16.3947 20.1195 17.394C18.2672 17.3009 16.4552 16.8195 14.8009 15.9809C13.1467 15.1422 11.6874 13.9651 10.5175 12.526C10.1175 13.216 9.88752 14.016 9.88752 14.868C9.88708 15.6349 10.076 16.3902 10.4374 17.0667C10.7988 17.7432 11.3217 18.32 11.9595 18.746C11.2198 18.7224 10.4964 18.5225 9.84952 18.163V18.223C9.84945 19.2987 10.2216 20.3413 10.9027 21.174C11.5839 22.0066 12.5321 22.5779 13.5865 22.791C12.9003 22.9767 12.1809 23.004 11.4825 22.871C11.78 23.7966 12.3595 24.606 13.1399 25.1859C13.9203 25.7658 14.8624 26.0871 15.8345 26.105C14.1844 27.4004 12.1464 28.103 10.0485 28.1C9.6769 28.1001 9.3056 28.0784 8.93652 28.035C11.066 29.4041 13.5449 30.1308 16.0765 30.128C24.6465 30.128 29.3315 23.03 29.3315 16.874C29.3315 16.674 29.3265 16.472 29.3175 16.272C30.2288 15.6129 31.0154 14.7968 31.6405 13.862L31.6425 13.859Z" fill="black"/>
</g>
</svg>
