<svg width="40" height="41" viewBox="0 0 40 41" fill="none" xmlns="http://www.w3.org/2000/svg">
<g opacity="0.7">
<circle cx="20" cy="20.9219" r="20" fill="white"/>
<path d="M27.891 16.7099C28.614 18.0324 28.992 19.5158 28.99 21.0229C28.9904 22.5962 28.5777 24.142 27.7933 25.5057C27.0089 26.8694 25.8801 28.0033 24.52 28.7939L27.266 20.8549C27.779 19.5729 27.95 18.5459 27.95 17.6359C27.9504 17.3263 27.9307 17.017 27.891 16.7099ZM21.24 16.7969C21.583 16.7801 21.9252 16.7507 22.266 16.7089C22.751 16.6459 22.694 15.9339 22.21 15.9599C22.21 15.9599 20.747 16.0719 19.81 16.0719C18.923 16.0719 17.435 15.9469 17.435 15.9469C16.948 15.9229 16.885 16.6599 17.374 16.6849C17.374 16.6849 17.823 16.7369 18.312 16.7599L19.711 20.5979L17.736 26.497L14.462 16.7729C14.8054 16.7557 15.1483 16.728 15.49 16.6899C15.977 16.6269 15.92 15.9149 15.435 15.9429C15.435 15.9429 13.98 16.0579 13.04 16.0579C12.873 16.0579 12.675 16.0509 12.465 16.0449C14.093 13.6479 16.862 12.0349 20 12.0349C22.341 12.0349 24.471 12.9289 26.071 14.3949C26.033 14.3929 25.995 14.3869 25.954 14.3869C25.071 14.3869 24.444 15.1569 24.444 15.9829C24.444 16.7239 24.871 17.3519 25.327 18.0909C25.67 18.6919 26.069 19.4609 26.069 20.5719C26.069 21.3349 25.774 22.2339 25.384 23.4709L24.488 26.4579L21.238 16.7829L21.24 16.7969ZM20 30.0089C19.1403 30.0098 18.2849 29.8872 17.46 29.6449L20.157 21.8069L22.92 29.379C22.941 29.423 22.962 29.4639 22.985 29.5029C22.0258 29.8393 21.0165 30.0111 20 30.011V30.0089ZM11.01 21.0229C11.0085 19.7624 11.2737 18.5158 11.788 17.3649L16.075 29.1139C14.5565 28.3766 13.2761 27.2268 12.3804 25.7959C11.4847 24.3651 11.0098 22.711 11.01 21.0229ZM20 11.0229C14.487 11.0229 10 15.5099 10 21.0229C10 26.5359 14.487 31.0229 20 31.0229C25.513 31.0229 30 26.5359 30 21.0229C30 15.5099 25.513 11.0229 20 11.0229Z" fill="black"/>
</g>
</svg>
